<svg id="keyline-templates" xmlns="http://www.w3.org/2000/svg" viewBox="0 0 48 48"><defs><style>.cls-1{fill:none;stroke:#000;stroke-miterlimit:10;stroke-width:0.97px;}</style></defs><title>icon</title><g id="tag-pair"><g id="icon"><path id="tag-body_tag-body--background" data-name="tag-body tag-body--background" class="cls-1" d="M15.13,12.38l-0.64.8c-1,1.27-3.57,6.65-.77,8.89l7,5.62,7,5.62c2.8,2.24,7.49-1.43,8.51-2.69l0.64-.8c1.35-1.68,3.59-6.41.66-8.75l-7-5.62-7-5.62C20.6,7.48,16.48,10.7,15.13,12.38Zm2.92,3a1.36,1.36,0,1,1-.21-1.91A1.36,1.36,0,0,1,18.05,15.41Z"/><path id="tag-body--foreground" d="M16.88,15.92a1.36,1.36,0,1,1,1.41-1.31A1.36,1.36,0,0,1,16.88,15.92Zm0.69-4.15-1,0c-1.62-.06-7.36,1.11-7.49,4.69l-0.32,9-0.32,9C8.29,38,13.92,39.54,15.55,39.6l1,0C18.72,39.72,24,38.7,24.1,35l0.32-9,0.32-9C24.88,13.23,19.72,11.84,17.57,11.77Z"/></g></g></svg>