<svg id="keyline-templates" xmlns="http://www.w3.org/2000/svg" viewBox="0 0 48 48"><defs><style>.cls-1{fill:#666;}</style></defs><title>icon</title><g id="notebook--cover-label-container"><path id="notebook__binding" d="M14.5,10H18a0,0,0,0,1,0,0V38a0,0,0,0,1,0,0H14.5a1.5,1.5,0,0,1-1.5-1.5V11.47A1.5,1.5,0,0,1,14.5,10Z"/><path class="cls-1" d="M34,37H18v1H34a1,1,0,0,0,1-1l-1,0h0Z"/><path class="cls-1" d="M34,10H18V35H34s1,0.13,1-.57V11A1,1,0,0,0,34,10Zm-1,9.56A1.45,1.45,0,0,1,31.5,21h-10c-1.1,0-2.5-.83-2.5-1.94V16.13A2.6,2.6,0,0,1,21.5,14h10A1.61,1.61,0,0,1,33,15.63v3.94Z"/><polygon id="notebook__strap" points="31 38.44 33 38.44 33 30.69 33 9.56 31 9.56 31 38.44"/></g></svg>