<svg id="keyline-templates" xmlns="http://www.w3.org/2000/svg" viewBox="0 0 48 48"><defs><style>.cls-1,.cls-2{fill:none;stroke:#000;stroke-linecap:round;stroke-linejoin:round;}.cls-1{stroke-width:0.5px;}.cls-2{stroke-width:0.25px;}</style></defs><title>icon</title><g id="wireframe-drop-logo-container"><g id="wireframe-drop-logo"><g id="vertical-wireframe-lines"><path class="cls-1" d="M24,38.74c5.4,0,17.62-11,0-29.5C6,27.73,18.59,38.74,24,38.74Z"/><path class="cls-1" d="M24,38.74c4.69,0,15.29-11,0-29.5C8.39,27.73,19.3,38.74,24,38.74Z"/><path class="cls-1" d="M24,38.74c3.36,0,10.94-11,0-29.5C12.81,27.73,20.61,38.74,24,38.74Z"/><path class="cls-1" d="M23.94,38.74c1.76,0,5.74-11,0-29.5C18.09,27.73,22.18,38.74,23.94,38.74Z"/><path class="cls-2" d="M24,25.07c0-4.36,0-9.69,0-15.84-0.07,18.5,0,29.5,0,29.5s0-4.9,0-13.66"/></g><g id="horizontal-wireframe-lines"><path class="cls-2" d="M20.88,12.73a3.81,3.81,0,0,0,3,1.31"/><path class="cls-2" d="M27.07,12.75A3.43,3.43,0,0,1,23.93,14"/><path class="cls-2" d="M18,16.87a11.45,11.45,0,0,0,5.88,1.31"/><path class="cls-2" d="M30,16.89c-1.36.92-3,1.29-6.07,1.29"/><path class="cls-2" d="M16,21c1.8,0.92,4.94,1.31,7.83,1.31"/><path class="cls-2" d="M31.95,21c-1.8.92-4,1.29-8.08,1.29"/><path class="cls-2" d="M14.84,25.14c2.07,0.92,5.66,1.31,9,1.31"/><path class="cls-2" d="M33.1,25.16c-2.07.92-4.59,1.29-9.25,1.29"/><path class="cls-2" d="M14.91,29.28c2.05,0.92,5.62,1.31,8.9,1.31"/><path class="cls-2" d="M33,29.3c-2.05.92-4.56,1.29-9.18,1.29"/><path class="cls-2" d="M16.39,33.42c1.72,0.92,4.7,1.31,7.45,1.31"/><path class="cls-2" d="M31.56,33.44c-1.72.92-3.81,1.29-7.68,1.29"/><path class="cls-2" d="M18.67,36.17a9.19,9.19,0,0,0,5.21,1.31"/><path class="cls-2" d="M29.28,36.2c-1.2.92-2.66,1.29-5.37,1.29"/></g></g></g></svg>